<mxfile host="app.diagrams.net" modified="2023-10-20T16:12:31.063Z" agent="Mozilla/5.0 (Windows NT 10.0; Win64; x64) AppleWebKit/537.36 (KHTML, like Gecko) Chrome/118.0.0.0 Safari/537.36" version="22.0.5" etag="H9UyH3FtZgfe-wpZaUME" type="github">
  <diagram name="Trang-1" id="OpELZV8KXUXLOo3bByOk">
    <mxGraphModel>
      <root>
        <mxCell id="0" />
        <mxCell id="1" parent="0" />
      </root>
    </mxGraphModel>
  </diagram>
</mxfile>
